<?xml version="1.0" encoding="UTF-8"?><svg id="Layer_2" xmlns="http://www.w3.org/2000/svg" viewBox="0 0 1191.88 1172.52"><defs><style>.cls-1{fill:none;stroke:#231f20;stroke-width:17px;}.cls-1,.cls-2{stroke-linecap:round;stroke-linejoin:round;}.cls-3{fill:#fff;}.cls-3,.cls-4{stroke-width:0px;}.cls-4{fill:#c5fffb;}.cls-2{fill:#fff100;stroke:#ffcc05;stroke-width:7px;}</style></defs><polygon class="cls-4" points="485.84 738.8 31.84 754.8 31.84 432.8 485.84 471.8 485.84 738.8"/><polygon class="cls-3" points="282.23 745.68 249.77 747.09 249.77 450.99 282.23 453.99 282.23 745.68"/><polygon class="cls-3" points="391.39 741.58 315.94 743.96 315.94 457.12 391.39 462.12 391.39 741.58"/><polygon class="cls-4" points="1164.34 756.54 710.34 738.54 710.34 473.54 1164.34 432.54 1164.34 756.54"/><polygon class="cls-3" points="960.73 749.42 928.27 747.83 928.27 455.74 960.73 450.74 960.73 749.42"/><polygon class="cls-3" points="1069.89 753.33 994.44 750.7 994.44 447.87 1069.89 441.87 1069.89 753.33"/><polygon class="cls-1" points="493.34 743.8 25.34 761.8 25.34 425.8 493.34 467.8 493.34 743.8"/><polygon class="cls-1" points="703.34 743.8 1171.34 761.8 1171.34 425.8 703.34 467.8 703.34 743.8"/><path class="cls-2" d="M597.95,719.16s-23.75.94-48.2-14.02c0,0-16.69-9.31-27.16-22.69,0,0-12.45-13.51-17.35-30.24,0,0-7.2-19.94-3.74-45.96,0,0,1.96-18.22,16.97-39.33,0,0,8.73-13.63,23.84-23.49,0,0,10.25-7.49,23.34-11.11,0,0-26.96,21.54-34.78,44.04,0,0-10.62,20.94-.94,46.25,0,0,8.44,22.82,30.94,36.25,0,0,19.06,10,37.19,8.75h0c22.19,0,37.81-9.06,37.81-9.06,24.3-12.6,30.94-37.19,30.94-37.19,6.56-23.75-5.94-49.06-5.94-49.06-11.25-24.06-30.51-39.98-30.51-39.98,13.08,3.62,23.34,11.11,23.34,11.11,15.11,9.87,23.84,23.49,23.84,23.49,15.01,21.11,16.97,39.33,16.97,39.33,3.46,26.02-3.74,45.96-3.74,45.96-4.91,16.73-17.35,30.24-17.35,30.24-10.47,13.38-27.16,22.69-27.16,22.69-24.45,14.96-48.2,14.02-48.2,14.02h-.11Z"/></svg>